<svg width="439" height="108" viewBox="0 0 439 108" fill="none" xmlns="http://www.w3.org/2000/svg">
<rect width="24" height="96" fill="white"/>
<path d="M38.5053 48.488L50 62L19.8733 101.13L0.00338815 95.982L38.5053 48.488Z" fill="white"/>
<rect x="71.1255" width="24" height="96" fill="white"/>
<path d="M46.0796 57.7129L38.5 49L95.1246 95.9993L74.4794 101.104L46.0796 57.7129Z" fill="white"/>
<rect x="189" width="24" height="96" fill="white"/>
<rect x="198" width="36" height="24" fill="white"/>
<rect x="189" y="38" width="40" height="20" fill="white"/>
<rect x="198" y="72" width="36" height="24" fill="white"/>
<rect x="243" width="24" height="96" fill="white"/>
<rect x="252" width="36" height="24" fill="white"/>
<rect x="243" y="38" width="40" height="20" fill="white"/>
<rect x="243" y="72" width="45" height="24" fill="white"/>
<rect x="104" width="24" height="96" fill="white"/>
<rect x="156" width="24" height="96" fill="white"/>
<rect x="104" y="36" width="76" height="24" fill="white"/>
<rect x="296" width="24" height="96" fill="white"/>
<rect x="296" y="76" width="45" height="20" fill="white"/>
<circle cx="391" cy="48" r="48" fill="white"/>
<circle cx="391" cy="48" r="37" fill="white"/>
</svg>
